PathFileType	4	(X/Y/Z)	/Users/itak/Documents/Research/Walk-IL/dataset/trc/00411_00012.trc
DataRate	CameraRate	NumFrames	NumMarkers	Units	OrigDataRate	OrigDataStartFrame	OrigNumFrames
100.000000	100.000000	4	53	mm	100.000000	76	608
Frame#	Time	RPSI			LPSI			L3			STRN			T10			C7			CLAV			RBAK			LBAK			LSHO			LUPA			LAEL			LAOL			LWTS			LWPS			LFRA			LIFD			LHPS			RSHO			RUPA			RAEL			RAOL			RWTS			RWPS			RFRA			RIFD			RHPS			RBHD			LFHD			RFHD			LBHD			LHIP			RHIP			RASI			LASI			LKNE			LTHI			LANK			LTIP			LTOE			LMT5			LHEE			RKNE			RTHI			RANK			RTIP			RTOE			RMT1			RMT5			RHEE			LHTS			RHTS			LMT1			
		X1	Y1	Z1	X2	Y2	Z2	X3	Y3	Z3	X4	Y4	Z4	X5	Y5	Z5	X6	Y6	Z6	X7	Y7	Z7	X8	Y8	Z8	X9	Y9	Z9	X10	Y10	Z10	X11	Y11	Z11	X12	Y12	Z12	X13	Y13	Z13	X14	Y14	Z14	X15	Y15	Z15	X16	Y16	Z16	X17	Y17	Z17	X18	Y18	Z18	X19	Y19	Z19	X20	Y20	Z20	X21	Y21	Z21	X22	Y22	Z22	X23	Y23	Z23	X24	Y24	Z24	X25	Y25	Z25	X26	Y26	Z26	X27	Y27	Z27	X28	Y28	Z28	X29	Y29	Z29	X30	Y30	Z30	X31	Y31	Z31	X32	Y32	Z32	X33	Y33	Z33	X34	Y34	Z34	X35	Y35	Z35	X36	Y36	Z36	X37	Y37	Z37	X38	Y38	Z38	X39	Y39	Z39	X40	Y40	Z40	X41	Y41	Z41	X42	Y42	Z42	X43	Y43	Z43	X44	Y44	Z44	X45	Y45	Z45	X46	Y46	Z46	X47	Y47	Z47	X48	Y48	Z48	X49	Y49	Z49	X50	Y50	Z50	X51	Y51	Z51	X52	Y52	Z52	X53	Y53	Z53	

77	0.76	-879.3911743164062	992.7332153320312	651.7566528320312	-877.0982055664062	984.7811279296875	520.4400634765625	-877.6609497070312	1060.284545898438	586.8304443359375	-640.7887573242188	1214.587036132812	605.454345703125	-886.17236328125	1164.088500976562	583.9216918945312	-851.0914306640625	1413.12890625	577.7885131835938	-694.1018676757812	1333.540161132812	600.2506103515625	-897.6846313476562	1266.215698242188	641.5209350585938	-851.9080200195312	1376.43212890625	471.3967590332031	-757.2113037109375	1390.815551757812	432.3439331054688	-764.5558471679688	1273.949462890625	358.6586608886719	-729.0068359375	1076.255615234375	343.9206237792969	-798.205322265625	1053.936767578125	386.1663513183594	-647.2108154296875	866.3804931640625	423.7809753417969	-670.5912475585938	850.2906494140625	346.1044006347656	-704.2388916015625	972.3195190429688	343.0267639160156	-638.1815185546875	686.7244262695312	427.0732727050781	-655.4605712890625	765.1959838867188	362.9906616210938	-805.663818359375	1389.848266601562	742.8740844726562	-819.8562622070312	1323.809692382812	801.0648803710938	-799.57666015625	1059.708618164062	837.2221069335938	-822.8652954101562	1052.621337890625	746.4260864257812	-666.7325439453125	848.514404296875	794.7713012695312	-703.1890258789062	835.1820068359375	857.2692260742188	-770.1178588867188	995.1109619140625	850.0272827148438	-663.0372314453125	675.5048217773438	795.4437255859375	-694.834228515625	746.6468505859375	855.9498291015625	-828.1887817382812	1597.858032226562	673.2655639648438	-670.9784545898438	1611.42822265625	550.1878051757812	-693.9597778320312	1612.734619140625	670.5758056640625	-814.0418090820312	1593.34033203125	509.3776550292969	-781.992431640625	970.6066284179688	411.7403564453125	-800.9403686523438	969.4718627929688	770.4629516601562	-665.652099609375	973.2986450195312	720.4846801757812	-672.1177978515625	967.0570678710938	457.4556579589844	-748.423583984375	476.2309265136719	430.7185974121094	-752.2927856445312	618.9052734375	420.1694946289062	-840.3959350585938	39.88953399658203	468.0779418945312	-799.014404296875	245.9879608154297	436.570068359375	-629.4544067382812	45.05516815185547	540.2026977539062	-711.63134765625	40.41485595703125	460.94140625	-879.2825927734375	39.18825531005859	524.4246215820312	-766.1567993164062	477.3905029296875	753.9225463867188	-722.5615844726562	740.7451782226562	773.3212280273438	-815.0179443359375	55.60015487670898	721.6786499023438	-758.5184326171875	351.2231750488281	741.4261474609375	-630.7145385742188	40.26442718505859	670.42236328125	-705.29052734375	44.64748764038086	635.7654418945312	-731.3922119140625	45.61543655395508	732.973388671875	-884.1619873046875	43.426025390625	663.533935546875	-619.1294555664062	771.2557373046875	414.9643249511719	-641.969970703125	744.2349243164062	812.2137451171875	-710.2146606445312	44.36722946166992	567.0460205078125	
78	0.77	-879.390625	992.7268676757812	651.7672729492188	-877.149658203125	984.7764892578125	520.46240234375	-877.6693725585938	1060.254638671875	586.828125	-640.8289794921875	1214.60888671875	605.4535522460938	-886.2085571289062	1164.0576171875	583.914794921875	-851.173583984375	1413.1044921875	577.7872924804688	-694.1878662109375	1333.556518554688	600.24658203125	-897.799560546875	1266.208984375	641.491455078125	-852.0632934570312	1376.355346679688	471.4081420898438	-757.3270263671875	1390.794921875	432.3360290527344	-764.6534423828125	1273.933715820312	358.6646728515625	-729.0670166015625	1076.2421875	343.9207763671875	-798.2866821289062	1053.89453125	386.1678771972656	-647.1558227539062	866.40380859375	423.8010864257812	-670.5824584960938	850.2882080078125	346.11962890625	-704.2611083984375	972.3120727539062	343.0363159179688	-638.06103515625	686.7483520507812	427.132568359375	-655.3944702148438	765.1909790039062	363.0244750976562	-805.7628173828125	1389.854736328125	742.8756713867188	-819.9322509765625	1323.806884765625	801.0656127929688	-799.578369140625	1059.707885742188	837.2302856445312	-822.9181518554688	1052.662109375	746.4634399414062	-666.770751953125	848.5322875976562	794.8016967773438	-703.1878662109375	835.1965942382812	857.3101806640625	-770.0925903320312	995.1341552734375	850.0484619140625	-663.0613403320312	675.5302734375	795.5491943359375	-694.84375	746.6485595703125	855.9985961914062	-828.2691040039062	1597.868286132812	673.2494506835938	-671.0138549804688	1611.398803710938	550.1849365234375	-693.9840087890625	1612.64892578125	670.5841674804688	-814.0751342773438	1593.3681640625	509.3679504394531	-782.0552978515625	970.6016235351562	411.7303161621094	-800.9549560546875	969.477783203125	770.47900390625	-665.757080078125	973.2932739257812	720.49658203125	-672.1356811523438	967.0599975585938	457.4504699707031	-748.4125366210938	476.2301025390625	430.7311706542969	-752.2894287109375	618.9103393554688	420.1814880371094	-840.3970947265625	39.89090728759766	468.0768127441406	-799.0078735351562	245.9905395507812	436.5703430175781	-629.4530029296875	45.05770874023438	540.203857421875	-711.6351928710938	40.41497421264648	460.9427185058594	-879.2576904296875	39.23084259033203	524.4403076171875	-766.1763916015625	477.3939208984375	753.9437255859375	-722.5771484375	740.7584838867188	773.36474609375	-815.0023803710938	55.60659027099609	721.6801147460938	-758.5211181640625	351.2191162109375	741.4397583007812	-630.7164916992188	40.26381301879883	670.4231567382812	-705.2921752929688	44.64674758911133	635.7689819335938	-731.3912963867188	45.61623001098633	732.9741821289062	-884.1653442382812	43.42378616333008	663.5355224609375	-619.0968627929688	771.2713012695312	414.9982299804688	-641.9732666015625	744.273681640625	812.2392578125	-710.215576171875	44.36722564697266	567.0457763671875	
79	0.78	-879.3975219726562	992.7217407226562	651.7741088867188	-877.2215576171875	984.7753295898438	520.498291015625	-877.6790161132812	1060.221069335938	586.8235473632812	-640.878173828125	1214.635986328125	605.4523315429688	-886.242919921875	1164.0263671875	583.9070434570312	-851.262939453125	1413.080322265625	577.77880859375	-694.2752685546875	1333.574951171875	600.2444458007812	-897.918701171875	1266.200073242188	641.4530639648438	-852.2166748046875	1376.280517578125	471.4178771972656	-757.4425659179688	1390.776977539062	432.3283386230469	-764.7498779296875	1273.921264648438	358.6679382324219	-729.1257934570312	1076.23291015625	343.9197082519531	-798.3685302734375	1053.856689453125	386.1624145507812	-647.0947875976562	866.4338989257812	423.8229370117188	-670.5667724609375	850.2892456054688	346.1372680664062	-704.2804565429688	972.3079833984375	343.0457153320312	-637.9331665039062	686.780029296875	427.1973266601562	-655.316162109375	765.1907958984375	363.0632629394531	-805.86474609375	1389.859619140625	742.8764038085938	-820.0182495117188	1323.801879882812	801.0636596679688	-799.5787353515625	1059.706787109375	837.2376708984375	-822.9717407226562	1052.703491210938	746.4984130859375	-666.8112182617188	848.5491943359375	794.8279418945312	-703.1848754882812	835.2103881835938	857.347412109375	-770.0726928710938	995.1553344726562	850.0673828125	-663.073974609375	675.5601806640625	795.6548461914062	-694.843994140625	746.6487426757812	856.0440673828125	-828.3453979492188	1597.88134765625	673.2349243164062	-671.0565185546875	1611.369262695312	550.175048828125	-694.0221557617188	1612.567749023438	670.5877685546875	-814.1116333007812	1593.396240234375	509.3590393066406	-782.1155395507812	970.5986938476562	411.7237548828125	-800.9664916992188	969.4818725585938	770.4915161132812	-665.8820190429688	973.2860717773438	720.5027465820312	-672.1547241210938	967.0646362304688	457.4448547363281	-748.4015502929688	476.2289733886719	430.7418823242188	-752.286865234375	618.91455078125	420.1927185058594	-840.3980712890625	39.89342880249023	468.0758666992188	-798.9954223632812	245.9904479980469	436.572998046875	-629.4524536132812	45.05930328369141	540.2045288085938	-711.6365356445312	40.41498565673828	460.9430847167969	-879.232177734375	39.27347564697266	524.4559326171875	-766.1900634765625	477.3961486816406	753.9608764648438	-722.5809936523438	740.77587890625	773.4089965820312	-814.9918823242188	55.61064910888672	721.6808471679688	-758.5197143554688	351.2152099609375	741.4517822265625	-630.718505859375	40.26370620727539	670.4218139648438	-705.2938842773438	44.64496231079102	635.7694091796875	-731.3906860351562	45.61802673339844	732.974609375	-884.169677734375	43.42410278320312	663.538330078125	-619.0652465820312	771.2886962890625	415.0372924804688	-641.989990234375	744.3232421875	812.2700805664062	-710.217041015625	44.3668327331543	567.0457763671875	
80	0.79	-879.4102172851562	992.7178344726562	651.7783813476562	-877.3135375976562	984.77783203125	520.5474243164062	-877.6900024414062	1060.182861328125	586.8147583007812	-640.93603515625	1214.668334960938	605.4519653320312	-886.2776489257812	1163.994750976562	583.8975830078125	-851.3646240234375	1413.058471679688	577.759521484375	-694.3653564453125	1333.595947265625	600.2445678710938	-898.0380249023438	1266.189208984375	641.4082641601562	-852.36572265625	1376.209716796875	471.4249877929688	-757.5565185546875	1390.761474609375	432.3210754394531	-764.8448486328125	1273.911010742188	358.6680297851562	-729.1830444335938	1076.227172851562	343.9180603027344	-798.448974609375	1053.823120117188	386.151611328125	-647.0335083007812	866.4688110351562	423.8455505371094	-670.5447998046875	850.2930908203125	346.156982421875	-704.2977294921875	972.3067626953125	343.0545349121094	-637.7978515625	686.8167114257812	427.2666320800781	-655.2269897460938	765.1947631835938	363.10546875	-805.9710083007812	1389.863159179688	742.8756713867188	-820.1160278320312	1323.794555664062	801.0587158203125	-799.5760498046875	1059.705444335938	837.2451782226562	-823.0250244140625	1052.73779296875	746.52685546875	-666.85302734375	848.5665283203125	794.8502197265625	-703.1829223632812	835.2227172851562	857.3803100585938	-770.0593872070312	995.1747436523438	850.0839233398438	-663.0767822265625	675.5945434570312	795.7554321289062	-694.8355712890625	746.6491088867188	856.0838623046875	-828.4174194335938	1597.8955078125	673.2210693359375	-671.1063232421875	1611.339111328125	550.1590576171875	-694.0761108398438	1612.492309570312	670.587158203125	-814.1500244140625	1593.424560546875	509.3511352539062	-782.1732788085938	970.5978393554688	411.7203369140625	-800.9754638671875	969.4842529296875	770.5010986328125	-666.0108032226562	973.2797241210938	720.5057983398438	-672.1752319335938	967.0700073242188	457.4395751953125	-748.3912963867188	476.2275695800781	430.7505187988281	-752.2839965820312	618.91796875	420.2029113769531	-840.3990478515625	39.89647674560547	468.0750732421875	-798.978271484375	245.9873809814453	436.5773010253906	-629.4522705078125	45.05979156494141	540.2050170898438	-711.6350708007812	40.41487121582031	460.9423522949219	-879.2053833007812	39.31676483154297	524.4718017578125	-766.1976318359375	477.3972778320312	753.9744873046875	-722.5743408203125	740.7954711914062	773.4496459960938	-814.9851684570312	55.61281204223633	721.6812744140625	-758.5149536132812	351.2113952636719	741.4616088867188	-630.720947265625	40.26382064819336	670.4181518554688	-705.2960815429688	44.64247894287109	635.7669677734375	-731.3909301757812	45.62074661254883	732.974853515625	-884.1737060546875	43.42501449584961	663.5415649414062	-619.0303344726562	771.30859375	415.0797119140625	-642.0169677734375	744.3826293945312	812.30615234375	-710.218994140625	44.36610794067383	567.0460205078125	
